<svg xmlns="http://www.w3.org/2000/svg" xmlns:xlink="http://www.w3.org/1999/xlink" width="990" height="819.85"><rect width="990" height="819.85" rx="5" ry="5" class="a"/><svg y="0%" x="0%"><circle cx="20" cy="20" r="6" fill="#ff5f58"/><circle cx="40" cy="20" r="6" fill="#ffbd2e"/><circle cx="60" cy="20" r="6" fill="#18c132"/></svg><svg height="759.85" viewBox="0 0 95 75.985" width="950" x="15" xmlns="http://www.w3.org/2000/svg" xmlns:xlink="http://www.w3.org/1999/xlink" y="50"><style>@keyframes q{0%{transform:translateX(0)}.8%{transform:translateX(-95px)}1%{transform:translateX(-380px)}14.1%{transform:translateX(-475px)}15.2%{transform:translateX(-570px)}16.5%{transform:translateX(-665px)}18.8%{transform:translateX(-760px)}20.6%{transform:translateX(-855px)}23%{transform:translateX(-950px)}25.4%{transform:translateX(-1045px)}26.7%{transform:translateX(-1140px)}31.5%{transform:translateX(-1330px)}31.6%{transform:translateX(-1710px)}31.8%{transform:translateX(-1995px)}32.3%{transform:translateX(-2280px)}43.2%{transform:translateX(-2375px)}44.8%{transform:translateX(-2470px)}46.2%{transform:translateX(-2565px)}48.3%{transform:translateX(-2660px)}52.6%{transform:translateX(-2755px)}55.1%{transform:translateX(-2850px)}57.4%{transform:translateX(-2945px)}58.3%{transform:translateX(-3040px)}59.4%{transform:translateX(-3135px)}70.7%{transform:translateX(-3230px)}80.4%{transform:translateX(-3420px)}80.5%{transform:translateX(-3705px)}80.7%{transform:translateX(-4085px)}81.2%{transform:translateX(-4370px)}to{transform:translateX(-4465px)}}.a{fill:#282d35}.f{fill:#66c2cd}.f,.g,.h{white-space:pre}.g{fill:#71bef2;font-weight:700}.h{fill:#a8cc8c}.i{fill:#6f7783}.i,.j,.k,.s{white-space:pre}.j{fill:#d290e4;font-weight:700}.k,.s{fill:#b9c0cb}.s{text-decoration:underline}</style><g font-family="Monaco,Consolas,Menlo,'Bitstream Vera Sans Mono','Powerline Symbols',monospace" font-size="1.67"><defs><symbol id="1"><text y="1.67" class="f">~</text><text x="2.004" y="1.67" class="g">&amp;</text></symbol><symbol id="2"><text y="1.67" class="f">~</text><text x="2.004" y="1.67" class="g">&amp;</text><text x="4.008" y="1.67" class="h">macchina</text><text x="13.026" y="1.67" class="i">--no-color</text></symbol><symbol id="3"><text y="1.67" class="f">~</text><text x="2.004" y="1.67" class="g">&amp;</text><text x="4.008" y="1.67" class="h">macchina</text></symbol><symbol id="4"><text x="2.004" y="1.67" class="j">host</text><text x="6.012" y="1.67" class="k">:</text><text x="8.016" y="1.67" class="k">archlinux</text></symbol><symbol id="5"><text x="2.004" y="1.67" class="g">os</text><text x="4.008" y="1.67" class="k">:</text><text x="8.016" y="1.67" class="k">Arch</text><text x="13.026" y="1.67" class="k">Linux</text></symbol><symbol id="6"><text x="2.004" y="1.67" style="white-space:pre" fill="#a8cc8c" font-weight="700">kern</text><text x="6.012" y="1.67" class="k">:</text><text x="8.016" y="1.67" class="k">5.10.5-arch1-1</text></symbol><symbol id="7"><text x="2.004" y="1.67" style="white-space:pre" fill="#dbab79" font-weight="700">term</text><text x="6.012" y="1.67" class="k">:</text><text x="8.016" y="1.67" class="k">konsole-256color</text></symbol><symbol id="8"><text x="2.004" y="1.67" style="white-space:pre" fill="#e88388" font-weight="700">up</text><text x="4.008" y="1.67" class="k">:</text><text x="8.016" y="1.67" class="k">1h,</text><text x="12.024" y="1.67" class="k">32m</text></symbol><symbol id="9"><text x="2.004" y="1.67" class="j">cpu</text><text x="5.01" y="1.67" class="k">:</text><text x="8.016" y="1.67" class="k">Intel(R)</text><text x="17.034" y="1.67" class="k">Core(TM)</text><text x="26.052" y="1.67" class="k">i5-8265U</text><text x="35.07" y="1.67" class="k">CPU</text><text x="39.078" y="1.67" class="k">@</text><text x="41.082" y="1.67" class="k">1.60GHz</text></symbol><symbol id="10"><text y="1.67" class="f">~</text><text x="2.004" y="1.67" class="g">&amp;</text><text x="4.008" y="1.67" class="h">macchina</text><text x="13.026" y="1.67" class="k">--no-color</text></symbol><symbol id="11"><text x="2.004" y="1.67" class="k">host:</text><text x="8.016" y="1.67" class="k">archlinux</text></symbol><symbol id="12"><text x="2.004" y="1.67" class="k">os:</text><text x="8.016" y="1.67" class="k">Arch</text><text x="13.026" y="1.67" class="k">Linux</text></symbol><symbol id="13"><text x="2.004" y="1.67" class="k">kern:</text><text x="8.016" y="1.67" class="k">5.10.5-arch1-1</text></symbol><symbol id="14"><text x="2.004" y="1.67" class="k">term:</text><text x="8.016" y="1.67" class="k">konsole-256color</text></symbol><symbol id="15"><text x="2.004" y="1.67" class="k">up:</text><text x="8.016" y="1.67" class="k">1h,</text><text x="12.024" y="1.67" class="k">32m</text></symbol><symbol id="16"><text x="2.004" y="1.67" class="k">cpu:</text><text x="8.016" y="1.67" class="k">Intel(R)</text><text x="17.034" y="1.67" class="k">Core(TM)</text><text x="26.052" y="1.67" class="k">i5-8265U</text><text x="35.07" y="1.67" class="k">CPU</text><text x="39.078" y="1.67" class="k">@</text><text x="41.082" y="1.67" class="k">1.60GHz</text></symbol><symbol id="a"><path fill="transparent" d="M0 0h95v35H0z"/></symbol><symbol id="b"><path fill="#6f7683" d="M0 0h1.102v2.171H0z"/></symbol></defs><path class="a" d="M0 0h95v75.985H0z"/><g style="animation-duration:7.675508s;animation-iteration-count:infinite;animation-name:q;animation-timing-function:steps(1,end)"><svg width="4560"><svg><use xlink:href="#a"/><use xlink:href="#b" x="-.004"/></svg><svg x="95"><use xlink:href="#a"/><use xlink:href="#b" x="-.004"/></svg><svg x="190"><use xlink:href="#a"/><use xlink:href="#b" x="3.996"/><use xlink:href="#1"/></svg><svg x="285"><use xlink:href="#a"/><use xlink:href="#b" x="3.996"/><use xlink:href="#1"/></svg><svg x="380"><use xlink:href="#a"/><use xlink:href="#b" x="3.996"/><use xlink:href="#1"/></svg><svg x="475"><use xlink:href="#a"/><use xlink:href="#b" x="4.996"/><text y="1.67" class="f">~</text><text x="2.004" y="1.67" class="g">&amp;</text><text x="4.008" y="1.67" class="s">m</text><text x="5.01" y="1.67" class="i">acchina</text><text x="13.026" y="1.67" class="i">--no-color</text></svg><svg x="570"><use xlink:href="#a"/><use xlink:href="#b" x="5.996"/><text y="1.67" class="f">~</text><text x="2.004" y="1.67" class="g">&amp;</text><text x="4.008" y="1.67" class="s">ma</text><text x="6.012" y="1.67" class="i">cchina</text><text x="13.026" y="1.67" class="i">--no-color</text></svg><svg x="665"><use xlink:href="#a"/><use xlink:href="#b" x="6.996"/><text y="1.67" class="f">~</text><text x="2.004" y="1.67" class="g">&amp;</text><text x="4.008" y="1.67" class="s">mac</text><text x="7.014" y="1.67" class="i">china</text><text x="13.026" y="1.67" class="i">--no-color</text></svg><svg x="760"><use xlink:href="#a"/><use xlink:href="#b" x="7.996"/><text y="1.67" class="f">~</text><text x="2.004" y="1.67" class="g">&amp;</text><text x="4.008" y="1.67" class="s">macc</text><text x="8.016" y="1.67" class="i">hina</text><text x="13.026" y="1.67" class="i">--no-color</text></svg><svg x="855"><use xlink:href="#a"/><use xlink:href="#b" x="8.996"/><text y="1.67" class="f">~</text><text x="2.004" y="1.67" class="g">&amp;</text><text x="4.008" y="1.67" class="s">macch</text><text x="9.018" y="1.67" class="i">ina</text><text x="13.026" y="1.67" class="i">--no-color</text></svg><svg x="950"><use xlink:href="#a"/><use xlink:href="#b" x="9.996"/><text y="1.67" class="f">~</text><text x="2.004" y="1.67" class="g">&amp;</text><text x="4.008" y="1.67" class="s">macchi</text><text x="10.02" y="1.67" class="i">na</text><text x="13.026" y="1.67" class="i">--no-color</text></svg><svg x="1045"><use xlink:href="#a"/><use xlink:href="#b" x="10.996"/><text y="1.67" class="f">~</text><text x="2.004" y="1.67" class="g">&amp;</text><text x="4.008" y="1.67" class="s">macchin</text><text x="11.022" y="1.67" class="i">a</text><text x="13.026" y="1.67" class="i">--no-color</text></svg><svg x="1140"><use xlink:href="#a"/><use xlink:href="#b" x="11.996"/><use xlink:href="#2"/></svg><svg x="1235"><use xlink:href="#a"/><use xlink:href="#b" x="11.996"/><use xlink:href="#3"/></svg><svg x="1330"><use xlink:href="#a"/><use xlink:href="#b" x="11.996"/><use xlink:href="#3"/></svg><svg x="1425"><use xlink:href="#a"/><use xlink:href="#b" x="-.004" y="2.146"/><use xlink:href="#3"/></svg><svg x="1520"><use xlink:href="#a"/><use xlink:href="#b" x="-.004" y="2.146"/><use xlink:href="#3"/></svg><svg x="1615"><use xlink:href="#a"/><use xlink:href="#b" x="-.004" y="4.317"/><use xlink:href="#3"/><use xlink:href="#4" y="2.171"/></svg><svg x="1710"><use xlink:href="#a"/><use xlink:href="#b" x="-.004" y="13.001"/><use xlink:href="#3"/><use xlink:href="#4" y="2.171"/><use xlink:href="#5" y="4.342"/><use xlink:href="#6" y="6.513"/><use xlink:href="#7" y="8.684"/><use xlink:href="#8" y="10.855"/></svg><svg x="1805"><use xlink:href="#a"/><use xlink:href="#b" x="-.004" y="15.172"/><use xlink:href="#3"/><use xlink:href="#4" y="2.171"/><use xlink:href="#5" y="4.342"/><use xlink:href="#6" y="6.513"/><use xlink:href="#7" y="8.684"/><use xlink:href="#8" y="10.855"/><use xlink:href="#9" y="13.026"/></svg><svg x="1900"><use xlink:href="#a"/><use xlink:href="#b" x="-.004" y="15.172"/><use xlink:href="#3"/><use xlink:href="#4" y="2.171"/><use xlink:href="#5" y="4.342"/><use xlink:href="#6" y="6.513"/><use xlink:href="#7" y="8.684"/><use xlink:href="#8" y="10.855"/><use xlink:href="#9" y="13.026"/></svg><svg x="1995"><use xlink:href="#a"/><use xlink:href="#b" x="-.004" y="15.172"/><use xlink:href="#3"/><use xlink:href="#4" y="2.171"/><use xlink:href="#5" y="4.342"/><use xlink:href="#6" y="6.513"/><use xlink:href="#7" y="8.684"/><use xlink:href="#8" y="10.855"/><use xlink:href="#9" y="13.026"/></svg><svg x="2090"><use xlink:href="#a"/><use xlink:href="#b" x="3.996" y="15.172"/><use xlink:href="#3"/><use xlink:href="#4" y="2.171"/><use xlink:href="#5" y="4.342"/><use xlink:href="#6" y="6.513"/><use xlink:href="#7" y="8.684"/><use xlink:href="#8" y="10.855"/><use xlink:href="#9" y="13.026"/><use xlink:href="#1" y="15.197"/></svg><svg x="2185"><use xlink:href="#a"/><use xlink:href="#b" x="3.996" y="15.172"/><use xlink:href="#3"/><use xlink:href="#4" y="2.171"/><use xlink:href="#5" y="4.342"/><use xlink:href="#6" y="6.513"/><use xlink:href="#7" y="8.684"/><use xlink:href="#8" y="10.855"/><use xlink:href="#9" y="13.026"/><use xlink:href="#1" y="15.197"/></svg><svg x="2280"><use xlink:href="#a"/><use xlink:href="#b" x="3.996" y="15.172"/><use xlink:href="#3"/><use xlink:href="#4" y="2.171"/><use xlink:href="#5" y="4.342"/><use xlink:href="#6" y="6.513"/><use xlink:href="#7" y="8.684"/><use xlink:href="#8" y="10.855"/><use xlink:href="#9" y="13.026"/><use xlink:href="#1" y="15.197"/></svg><svg x="2375"><use xlink:href="#a"/><use xlink:href="#b" x="4.996" y="15.172"/><use xlink:href="#3"/><use xlink:href="#4" y="2.171"/><use xlink:href="#5" y="4.342"/><use xlink:href="#6" y="6.513"/><use xlink:href="#7" y="8.684"/><use xlink:href="#8" y="10.855"/><use xlink:href="#9" y="13.026"/><text y="16.867" class="f">~</text><text x="2.004" y="16.867" class="g">&amp;</text><text x="4.008" y="16.867" class="s">m</text><text x="5.01" y="16.867" class="i">acchina</text></svg><svg x="2470"><use xlink:href="#a"/><use xlink:href="#b" x="5.996" y="15.172"/><use xlink:href="#3"/><use xlink:href="#4" y="2.171"/><use xlink:href="#5" y="4.342"/><use xlink:href="#6" y="6.513"/><use xlink:href="#7" y="8.684"/><use xlink:href="#8" y="10.855"/><use xlink:href="#9" y="13.026"/><text y="16.867" class="f">~</text><text x="2.004" y="16.867" class="g">&amp;</text><text x="4.008" y="16.867" class="s">ma</text><text x="6.012" y="16.867" class="i">cchina</text></svg><svg x="2565"><use xlink:href="#a"/><use xlink:href="#b" x="6.996" y="15.172"/><use xlink:href="#3"/><use xlink:href="#4" y="2.171"/><use xlink:href="#5" y="4.342"/><use xlink:href="#6" y="6.513"/><use xlink:href="#7" y="8.684"/><use xlink:href="#8" y="10.855"/><use xlink:href="#9" y="13.026"/><text y="16.867" class="f">~</text><text x="2.004" y="16.867" class="g">&amp;</text><text x="4.008" y="16.867" class="s">mac</text><text x="7.014" y="16.867" class="i">china</text></svg><svg x="2660"><use xlink:href="#a"/><use xlink:href="#b" x="7.996" y="15.172"/><use xlink:href="#3"/><use xlink:href="#4" y="2.171"/><use xlink:href="#5" y="4.342"/><use xlink:href="#6" y="6.513"/><use xlink:href="#7" y="8.684"/><use xlink:href="#8" y="10.855"/><use xlink:href="#9" y="13.026"/><text y="16.867" class="f">~</text><text x="2.004" y="16.867" class="g">&amp;</text><text x="4.008" y="16.867" class="s">macc</text><text x="8.016" y="16.867" class="i">hina</text></svg><svg x="2755"><use xlink:href="#a"/><use xlink:href="#b" x="8.996" y="15.172"/><use xlink:href="#3"/><use xlink:href="#4" y="2.171"/><use xlink:href="#5" y="4.342"/><use xlink:href="#6" y="6.513"/><use xlink:href="#7" y="8.684"/><use xlink:href="#8" y="10.855"/><use xlink:href="#9" y="13.026"/><text y="16.867" class="f">~</text><text x="2.004" y="16.867" class="g">&amp;</text><text x="4.008" y="16.867" class="s">macch</text><text x="9.018" y="16.867" class="i">ina</text></svg><svg x="2850"><use xlink:href="#a"/><use xlink:href="#b" x="9.996" y="15.172"/><use xlink:href="#3"/><use xlink:href="#4" y="2.171"/><use xlink:href="#5" y="4.342"/><use xlink:href="#6" y="6.513"/><use xlink:href="#7" y="8.684"/><use xlink:href="#8" y="10.855"/><use xlink:href="#9" y="13.026"/><text y="16.867" class="f">~</text><text x="2.004" y="16.867" class="g">&amp;</text><text x="4.008" y="16.867" class="s">macchi</text><text x="10.02" y="16.867" class="i">na</text></svg><svg x="2945"><use xlink:href="#a"/><use xlink:href="#b" x="10.996" y="15.172"/><use xlink:href="#3"/><use xlink:href="#4" y="2.171"/><use xlink:href="#5" y="4.342"/><use xlink:href="#6" y="6.513"/><use xlink:href="#7" y="8.684"/><use xlink:href="#8" y="10.855"/><use xlink:href="#9" y="13.026"/><text y="16.867" class="f">~</text><text x="2.004" y="16.867" class="g">&amp;</text><text x="4.008" y="16.867" class="s">macchin</text><text x="11.022" y="16.867" class="i">a</text></svg><svg x="3040"><use xlink:href="#a"/><use xlink:href="#b" x="11.996" y="15.172"/><use xlink:href="#3"/><use xlink:href="#4" y="2.171"/><use xlink:href="#5" y="4.342"/><use xlink:href="#6" y="6.513"/><use xlink:href="#7" y="8.684"/><use xlink:href="#8" y="10.855"/><use xlink:href="#9" y="13.026"/><use xlink:href="#3" y="15.197"/></svg><svg x="3135"><use xlink:href="#a"/><use xlink:href="#b" x="12.996" y="15.172"/><use xlink:href="#3"/><use xlink:href="#4" y="2.171"/><use xlink:href="#5" y="4.342"/><use xlink:href="#6" y="6.513"/><use xlink:href="#7" y="8.684"/><use xlink:href="#8" y="10.855"/><use xlink:href="#9" y="13.026"/><use xlink:href="#2" y="15.197"/></svg><svg x="3230"><use xlink:href="#a"/><use xlink:href="#b" x="22.996" y="15.172"/><use xlink:href="#3"/><use xlink:href="#4" y="2.171"/><use xlink:href="#5" y="4.342"/><use xlink:href="#6" y="6.513"/><use xlink:href="#7" y="8.684"/><use xlink:href="#8" y="10.855"/><use xlink:href="#9" y="13.026"/><use xlink:href="#10" y="15.197"/></svg><svg x="3325"><use xlink:href="#a"/><use xlink:href="#b" x="22.996" y="15.172"/><use xlink:href="#3"/><use xlink:href="#4" y="2.171"/><use xlink:href="#5" y="4.342"/><use xlink:href="#6" y="6.513"/><use xlink:href="#7" y="8.684"/><use xlink:href="#8" y="10.855"/><use xlink:href="#9" y="13.026"/><use xlink:href="#10" y="15.197"/></svg><svg x="3420"><use xlink:href="#a"/><use xlink:href="#b" x="-.004" y="17.343"/><use xlink:href="#3"/><use xlink:href="#4" y="2.171"/><use xlink:href="#5" y="4.342"/><use xlink:href="#6" y="6.513"/><use xlink:href="#7" y="8.684"/><use xlink:href="#8" y="10.855"/><use xlink:href="#9" y="13.026"/><use xlink:href="#10" y="15.197"/></svg><svg x="3515"><use xlink:href="#a"/><use xlink:href="#b" x="-.004" y="17.343"/><use xlink:href="#3"/><use xlink:href="#4" y="2.171"/><use xlink:href="#5" y="4.342"/><use xlink:href="#6" y="6.513"/><use xlink:href="#7" y="8.684"/><use xlink:href="#8" y="10.855"/><use xlink:href="#9" y="13.026"/><use xlink:href="#10" y="15.197"/></svg><svg x="3610"><use xlink:href="#a"/><use xlink:href="#b" x="-.004" y="23.856"/><use xlink:href="#3"/><use xlink:href="#4" y="2.171"/><use xlink:href="#5" y="4.342"/><use xlink:href="#6" y="6.513"/><use xlink:href="#7" y="8.684"/><use xlink:href="#8" y="10.855"/><use xlink:href="#9" y="13.026"/><use xlink:href="#10" y="15.197"/><use xlink:href="#11" y="17.368"/><use xlink:href="#12" y="19.539"/><use xlink:href="#13" y="21.71"/></svg><svg x="3705"><use xlink:href="#a"/><use xlink:href="#b" x="-.004" y="28.198"/><use xlink:href="#3"/><use xlink:href="#4" y="2.171"/><use xlink:href="#5" y="4.342"/><use xlink:href="#6" y="6.513"/><use xlink:href="#7" y="8.684"/><use xlink:href="#8" y="10.855"/><use xlink:href="#9" y="13.026"/><use xlink:href="#10" y="15.197"/><use xlink:href="#11" y="17.368"/><use xlink:href="#12" y="19.539"/><use xlink:href="#13" y="21.71"/><use xlink:href="#14" y="23.881"/><use xlink:href="#15" y="26.052"/></svg><svg x="3800"><use xlink:href="#a"/><use xlink:href="#b" x="-.004" y="30.369"/><use xlink:href="#3"/><use xlink:href="#4" y="2.171"/><use xlink:href="#5" y="4.342"/><use xlink:href="#6" y="6.513"/><use xlink:href="#7" y="8.684"/><use xlink:href="#8" y="10.855"/><use xlink:href="#9" y="13.026"/><use xlink:href="#10" y="15.197"/><use xlink:href="#11" y="17.368"/><use xlink:href="#12" y="19.539"/><use xlink:href="#13" y="21.71"/><use xlink:href="#14" y="23.881"/><use xlink:href="#15" y="26.052"/><use xlink:href="#16" y="28.223"/></svg><svg x="3895"><use xlink:href="#a"/><use xlink:href="#b" x="-.004" y="30.369"/><use xlink:href="#3"/><use xlink:href="#4" y="2.171"/><use xlink:href="#5" y="4.342"/><use xlink:href="#6" y="6.513"/><use xlink:href="#7" y="8.684"/><use xlink:href="#8" y="10.855"/><use xlink:href="#9" y="13.026"/><use xlink:href="#10" y="15.197"/><use xlink:href="#11" y="17.368"/><use xlink:href="#12" y="19.539"/><use xlink:href="#13" y="21.71"/><use xlink:href="#14" y="23.881"/><use xlink:href="#15" y="26.052"/><use xlink:href="#16" y="28.223"/></svg><svg x="3990"><use xlink:href="#a"/><use xlink:href="#b" x="-.004" y="30.369"/><use xlink:href="#3"/><use xlink:href="#4" y="2.171"/><use xlink:href="#5" y="4.342"/><use xlink:href="#6" y="6.513"/><use xlink:href="#7" y="8.684"/><use xlink:href="#8" y="10.855"/><use xlink:href="#9" y="13.026"/><use xlink:href="#10" y="15.197"/><use xlink:href="#11" y="17.368"/><use xlink:href="#12" y="19.539"/><use xlink:href="#13" y="21.71"/><use xlink:href="#14" y="23.881"/><use xlink:href="#15" y="26.052"/><use xlink:href="#16" y="28.223"/></svg><svg x="4085"><use xlink:href="#a"/><use xlink:href="#b" x="-.004" y="30.369"/><use xlink:href="#3"/><use xlink:href="#4" y="2.171"/><use xlink:href="#5" y="4.342"/><use xlink:href="#6" y="6.513"/><use xlink:href="#7" y="8.684"/><use xlink:href="#8" y="10.855"/><use xlink:href="#9" y="13.026"/><use xlink:href="#10" y="15.197"/><use xlink:href="#11" y="17.368"/><use xlink:href="#12" y="19.539"/><use xlink:href="#13" y="21.71"/><use xlink:href="#14" y="23.881"/><use xlink:href="#15" y="26.052"/><use xlink:href="#16" y="28.223"/></svg><svg x="4180"><use xlink:href="#a"/><use xlink:href="#b" x="3.996" y="30.369"/><use xlink:href="#3"/><use xlink:href="#4" y="2.171"/><use xlink:href="#5" y="4.342"/><use xlink:href="#6" y="6.513"/><use xlink:href="#7" y="8.684"/><use xlink:href="#8" y="10.855"/><use xlink:href="#9" y="13.026"/><use xlink:href="#10" y="15.197"/><use xlink:href="#11" y="17.368"/><use xlink:href="#12" y="19.539"/><use xlink:href="#13" y="21.71"/><use xlink:href="#14" y="23.881"/><use xlink:href="#15" y="26.052"/><use xlink:href="#16" y="28.223"/><use xlink:href="#1" y="30.394"/></svg><svg x="4275"><use xlink:href="#a"/><use xlink:href="#b" x="3.996" y="30.369"/><use xlink:href="#3"/><use xlink:href="#4" y="2.171"/><use xlink:href="#5" y="4.342"/><use xlink:href="#6" y="6.513"/><use xlink:href="#7" y="8.684"/><use xlink:href="#8" y="10.855"/><use xlink:href="#9" y="13.026"/><use xlink:href="#10" y="15.197"/><use xlink:href="#11" y="17.368"/><use xlink:href="#12" y="19.539"/><use xlink:href="#13" y="21.71"/><use xlink:href="#14" y="23.881"/><use xlink:href="#15" y="26.052"/><use xlink:href="#16" y="28.223"/><use xlink:href="#1" y="30.394"/></svg><svg x="4370"><use xlink:href="#a"/><use xlink:href="#b" x="3.996" y="30.369"/><use xlink:href="#3"/><use xlink:href="#4" y="2.171"/><use xlink:href="#5" y="4.342"/><use xlink:href="#6" y="6.513"/><use xlink:href="#7" y="8.684"/><use xlink:href="#8" y="10.855"/><use xlink:href="#9" y="13.026"/><use xlink:href="#10" y="15.197"/><use xlink:href="#11" y="17.368"/><use xlink:href="#12" y="19.539"/><use xlink:href="#13" y="21.71"/><use xlink:href="#14" y="23.881"/><use xlink:href="#15" y="26.052"/><use xlink:href="#16" y="28.223"/><use xlink:href="#1" y="30.394"/></svg><svg x="4465"><use xlink:href="#a"/><use xlink:href="#b" x="-.004" y="32.54"/><use xlink:href="#3"/><use xlink:href="#4" y="2.171"/><use xlink:href="#5" y="4.342"/><use xlink:href="#6" y="6.513"/><use xlink:href="#7" y="8.684"/><use xlink:href="#8" y="10.855"/><use xlink:href="#9" y="13.026"/><use xlink:href="#10" y="15.197"/><use xlink:href="#11" y="17.368"/><use xlink:href="#12" y="19.539"/><use xlink:href="#13" y="21.71"/><use xlink:href="#14" y="23.881"/><use xlink:href="#15" y="26.052"/><use xlink:href="#16" y="28.223"/><use xlink:href="#1" y="30.394"/></svg></svg></g></g></svg></svg>